<?xml version="1.0" standalone="no"?>
<!DOCTYPE svg PUBLIC "-//W3C//DTD SVG 20010904//EN"
 "http://www.w3.org/TR/2001/REC-SVG-20010904/DTD/svg10.dtd">
<svg version="1.0" xmlns="http://www.w3.org/2000/svg"
 width="612.000000pt" height="612.000000pt" viewBox="0 0 612.000000 612.000000"
 preserveAspectRatio="xMidYMid meet">
<metadata>
Created by potrace 1.14, written by Peter Selinger 2001-2017
</metadata>
<g transform="translate(0.000000,612.000000) scale(0.100000,-0.100000)"
fill="#000000" stroke="none">
<path d="M1916 4829 c-15 -22 -13 -35 15 -84 9 -16 91 -160 181 -320 91 -159
223 -393 295 -520 72 -126 219 -387 328 -580 109 -192 239 -422 290 -510 50
-88 170 -298 265 -467 95 -169 186 -323 202 -342 16 -19 54 -47 86 -63 53 -26
67 -28 200 -31 133 -4 142 -3 142 15 0 10 -7 77 -15 148 -8 72 -15 136 -15
143 0 11 -25 12 -128 6 -119 -6 -132 -5 -178 15 -71 32 -97 61 -176 196 -39
66 -83 140 -98 165 -15 25 -106 178 -202 340 -185 312 -403 679 -715 1205
-105 176 -237 399 -293 495 -57 96 -110 183 -118 193 -20 23 -48 22 -66 -4z"/>
<path d="M4138 4833 c-9 -10 -67 -106 -130 -213 -114 -193 -515 -870 -608
-1025 -26 -44 -107 -180 -179 -301 l-131 -222 36 -61 c20 -33 40 -58 45 -55 5
2 25 35 46 72 20 37 80 144 134 237 53 94 158 280 234 415 76 135 238 421 360
635 250 439 265 467 265 493 0 40 -45 56 -72 25z"/>
<path d="M2792 2572 c-83 -142 -164 -270 -180 -285 -15 -14 -49 -36 -77 -48
-45 -20 -59 -21 -177 -15 -101 5 -128 4 -128 -6 0 -7 -7 -71 -15 -143 -8 -71
-15 -138 -15 -148 0 -17 10 -18 143 -15 137 3 146 4 203 33 39 20 70 46 92 75
18 25 114 188 213 363 l179 318 -37 64 c-21 36 -40 65 -43 65 -3 0 -74 -117
-158 -258z"/>
<path d="M1493 2260 c-32 -13 -47 -43 -82 -162 -24 -81 -29 -112 -22 -131 16
-41 49 -57 118 -57 l62 0 10 38 c26 98 73 304 69 307 -9 9 -136 13 -155 5z"/>
<path d="M4508 2263 c-21 -2 -38 -9 -38 -14 0 -10 52 -232 71 -301 l10 -38 62
0 c69 0 102 16 117 56 12 30 -51 249 -79 277 -20 20 -77 28 -143 20z"/>
<path d="M1705 2247 c-9 -27 -75 -310 -75 -323 0 -12 45 -14 258 -14 l259 0
15 158 c9 86 14 159 12 161 -3 3 -71 8 -152 12 -81 5 -184 10 -230 13 -60 4
-84 2 -87 -7z"/>
<path d="M4153 2246 c-111 -7 -204 -14 -207 -16 -2 -3 2 -64 10 -135 7 -72 14
-142 14 -157 l0 -28 260 0 c201 0 260 3 260 13 0 6 -17 84 -39 172 -38 160
-38 160 -67 161 -16 1 -120 -4 -231 -10z"/>
<path d="M2910 1916 c-144 -41 -171 -104 -66 -152 124 -57 319 -55 436 3 48
25 55 32 55 58 0 33 -40 66 -104 86 -56 17 -268 21 -321 5z"/>
<path d="M2780 1686 c0 -59 26 -85 107 -112 81 -26 265 -26 346 0 81 27 107
53 107 112 0 40 -2 45 -17 39 -110 -44 -129 -48 -258 -48 -127 -1 -170 7 -267
48 -16 6 -18 1 -18 -39z"/>
</g>
</svg>
